<svg viewBox="0 0 438.5 438.5" xmlns="http://www.w3.org/2000/svg">
  <path d="M414.4 24.1C398.3 8 379 0 356.3 0H82.2c-22.6 0-42 8-58.1 24.1S0 59.6 0 82.2v274.1c0 22.6 8 42 24.1 58.1s35.5 24.1 58.1 24.1h64c4.2 0 7.3-.1 9.4-.4s4.2-1.5 6.3-3.7 3.1-5.4 3.1-9.6c0-.6-.1-7-.1-19.4-.1-12.4-.1-22.2-.1-29.4l-6.6 1.1c-4.2.8-9.5 1.1-15.8 1-6.4-.1-13-.8-19.8-2-6.9-1.2-13.2-4.1-19.1-8.6s-10.1-10.3-12.6-17.6l-2.9-6.6c-1.9-4.4-4.9-9.2-9-14.6-4.1-5.3-8.2-8.9-12.4-10.9l-2-1.4c-1.3-1-2.6-2.1-3.7-3.4s-2-2.7-2.6-4-.1-2.4 1.4-3.3 4.3-1.3 8.3-1.3l5.7.9c3.8.8 8.5 3 14.1 6.9C93.4 316 98 321 101.6 327c4.4 7.8 9.7 13.8 15.8 17.8 6.2 4.1 12.4 6.1 18.7 6.1s11.7-.5 16.3-1.4c4.6-1 8.8-2.4 12.8-4.3 1.7-12.8 6.4-22.6 14-29.4-10.8-1.1-20.6-2.9-29.3-5.1-8.7-2.3-17.6-6-26.8-11.1s-16.9-11.5-23-19.1-11.1-17.6-15-30-5.9-26.7-5.9-42.8c0-23 7.5-42.6 22.6-58.8-7-17.3-6.4-36.7 2-58.2 5.5-1.7 13.7-.4 24.6 3.9s18.8 8 23.8 11 9.1 5.6 12.1 7.7c17.7-4.9 36-7.4 54.8-7.4s37.1 2.5 54.8 7.4l10.8-6.9c7.4-4.6 16.2-8.8 26.3-12.6s17.8-4.9 23.1-3.1c8.6 21.5 9.3 40.9 2.3 58.2 15 16.2 22.6 35.8 22.6 58.8 0 16.2-2 30.5-5.9 43s-8.9 22.5-15.1 30-13.9 13.8-23.1 19c-9.2 5.1-18.2 8.9-26.8 11.1-8.7 2.3-18.4 4-29.3 5.1 9.9 8.6 14.8 22.1 14.8 40.5v68.2c0 3.2.5 5.9 1.4 7.9 1 2 2.5 3.4 4.6 4.1 2.1.8 3.9 1.2 5.6 1.4 1.6.2 3.9.3 7 .3h64c22.6 0 42-8 58.1-24.1s24.1-35.5 24.1-58.1V82.2c.1-22.6-7.9-42-24-58.1z"/>
</svg>
