<svg viewBox="0 0 68 81" xmlns:xlink="http://www.w3.org/1999/xlink" width="38" height="45" overflow="hidden">
  <defs>
    <path id="a" d="M0 .443h55.776V81H0z"/>
  </defs>
  <g fill="none" fill-rule="evenodd">
    <path fill="#010202" d="M116.385 59.713V20.469h7.979v33.03h17.594v6.214z"/>
    <g transform="translate(0 -.443)">
      <path fill="#010202" d="M170.463 61.267c-10.335 0-18.052-5.952-18.052-19.229V20.913h8.111v20.863c0 8.503 3.662 12.623 10.071 12.623 6.41 0 10.073-4.12 10.073-12.623V20.912h7.783V42.04c0 13.276-7.652 19.228-17.986 19.228m51.666-.261c-11.315 0-21.06-7.783-21.06-20.472 0-12.688 9.745-20.471 21.06-20.471 5.167 0 10.4 1.504 13.67 3.99v7.26c-3.14-2.748-7.392-4.841-12.82-4.841-7.784 0-13.539 5.233-13.539 14.062 0 8.765 5.755 14.063 13.54 14.063 5.427 0 9.678-2.094 12.818-4.84v7.26c-3.27 2.485-8.502 3.989-13.669 3.989m53.79-.851l-17.397-18.51v18.51h-7.98V20.912h7.98v17.922l15.893-17.922h8.699l-16.94 18.706 19.556 20.538zm38.004-15.697v15.697h-7.979V44.459l-15.371-23.546h8.7l10.792 17.07 10.791-17.07h8.437zm57.508-17.333v9.484h13.866v6.147h-13.866v17.399h-7.979V20.912h25.115v6.214zm31.613 33.03V20.912h25.572v6.214h-17.593v9.222h14.323v6.214h-14.323v11.38h17.593v6.214zm79.023 0h-5.821l-7.783-23.48c-.327-.85-.785-2.813-.785-3.01-.065.066-.59 2.224-.85 3.01l-7.783 23.48h-5.821L439.75 20.912h7.913l7.915 24.658c.26.851.719 3.401.784 3.663l.98-3.663 7.588-24.658h5.69l7.653 24.658c.262.916.916 3.663.916 3.663s.458-2.747.784-3.663l7.849-24.658h7.652l-13.408 39.244z"/>
      <mask id="b" fill="#fff">
        <use xlink:href="#a"/>
      </mask>
      <path fill="#010202" mask="url(#b)" d="M0 81V.443h16.27v67.888h39.506V81z"/>
      <path fill="#010202" d="M43.483 13.113V57.76H27.212V.444h40.427v12.669z"/>
      <path fill="#010202" d="M63.878 30.925a8.269 8.269 0 11-16.537 0 8.269 8.269 0 0116.537 0"/>
    </g>
  </g>
</svg>
