<svg xmlns="http://www.w3.org/2000/svg" viewBox="0 0 720.39 149.69">
  <path d="M289.16 37L256 112h-7.82l-33.26-75h8.57l28.71 65.13L281.12 37zM405.61 37l-25.28 75H372l-22-64-22.07 64h-8.25l-25.27-75h8.14l21.64 64.49L346.58 37H354l22.07 64.81L398 37zM474.19 105.16V112h-53V37h51.42v6.85h-43.5v26.71h38.79v6.75h-38.82v27.85zM493.9 37h7.93v68.13h42V112H493.9zM565.68 43.88h-26.35V37H600v6.85h-26.39V112h-7.93zM599.86 102l4.72-5.36c4.07 6 9.53 9.21 16.17 9.21 9.22 0 13.93-5.46 13.93-16.49V43.88h-27.43V37h35.25v52c0 15.86-7.5 23.68-21.85 23.68A24.67 24.67 0 01599.86 102zM720.39 105.16V112h-53V37h51.42v6.85h-43.52v26.71h38.78v6.75h-38.78v27.85zM112.17 8.83H100.8L97.21 0h27.87L62.69 149.69 0 .15h30.42l37.12 88.48L63.1 99.3l-38-90.47H13.21L62.69 127.4z"/>
  <path d="M112.16 127.79l49.66-119h-12l-38 90.46-4.52-10.69L144.42.07l30.18.08-62.44 149.46L48.71.3 79.52.15 93.31 33 89 43.45 74.17 8.39l-11.78.15z"/>
</svg>
