<svg xmlns="http://www.w3.org/2000/svg" viewBox="0 0 613.51 149.69">
  <title>Logo Vincent Weltje</title>
  <path d="M112.17 8.83H100.8L97.21 0h27.87L62.69 149.69 0 .15h30.42l37.12 88.48L63.1 99.3l-38-90.47H13.21L62.69 127.4z"/>
  <path d="M112.16 127.79l49.66-119h-12l-38 90.46-4.52-10.69L144.42.07l30.18.08-62.44 149.46L48.71.3 79.52.15 93.31 33 89 43.45 74.17 8.39l-11.78.15zM291.15 36.1l-34.1 77h-8l-34.1-77h8.8L253.2 103l29.7-66.9zM378.48 57.1l-18.89 56h-6.24L337 65.34l-16.53 47.76h-6.16l-18.88-56h6.08l16.16 48.16 16.72-48.16h5.52l16.48 48.4 16.41-48.4zM429.67 108v5.12h-39.6v-56h38.4v5.12H396v19.9h29v5h-29V108zM444.39 57.1h5.92V108h31.36v5.12h-37.28zM498 62.22h-19.69V57.1h45.28v5.12h-19.68v50.88H498zM523.51 105.58l3.52-4c3 4.48 7.12 6.88 12.08 6.88 6.88 0 10.4-4.08 10.4-12.32V62.22H529V57.1h26.32v38.8c0 11.84-5.6 17.68-16.32 17.68a18.41 18.41 0 01-15.49-8zM613.51 108v5.12h-39.6v-56h38.4v5.12h-32.48v19.9h29v5h-29V108z"/>
</svg>
