<svg xmlns="http://www.w3.org/2000/svg" viewBox="0 0 74.6 73.6">
  <path d="M48.3 35.9c.6 5.6-3.4 10.6-9 11.2-5.6.6-10.6-3.4-11.2-9s3.4-10.6 9-11.2c5.5-.6 10.5 3.4 11.2 9M34.8 23.1c13.9 2.1 15.9-7.2 15.9-7.2l.3-.8c-4.5-2.7-9.9-3.9-15.5-3.3-10.8 1.2-19.2 8.9-21.8 18.7 2.1-1.8 10.9-8.9 21.1-7.4M52.2 41.7C43.3 52.6 50.3 59 50.3 59v.1c8.6-4.8 14-14.4 12.9-24.9-.6-5.7-3.1-10.7-6.7-14.6.5 2.4 2.4 14-4.3 22.1M27 46.9c-4.9-12-12.9-10.3-14.1-10 0 .9 0 1.8.1 2.8 1.5 13.9 14 23.9 27.9 22.4 1.3-.1 2.6-.4 3.8-.7-1.1-.3-13.4-4-17.7-14.5"/>
  <circle cx="5.6" cy="37.6" r="3.8"/>
  <circle cx="55.1" cy="65" r="3.8"/>
  <g>
    <path d="M49.1 68c-.4-.8-.6-1.6-.7-2.5-1.6.6-3.3 1-5 1.3-16 2.8-31.4-7.5-34.9-23.3h-.1c-1.4.8-3 1-4.4.6 3.8 18.4 21.6 30.6 40.2 27.3 2.1-.4 4.2-.9 6.1-1.7-.5-.5-.9-1.1-1.2-1.7zM8.3 31.6C10.5 19.4 20 9.4 32.9 7.1c4.8-.8 9.5-.5 13.8.8.2-1.6.9-3.1 2.1-4.2C43.6 2 37.9 1.5 32.1 2.6c-15 2.6-26 14.5-28.4 28.7 1.6-.5 3.2-.4 4.6.3zM72.5 30.9C71 22.2 66.3 14.8 59.9 9.6c-.2 1.6-1.1 3-2.3 4.1 5.3 4.4 9.1 10.7 10.4 18 1.9 10.6-2 20.9-9.4 27.7 1 .6 1.9 1.5 2.4 2.7.2.3.3.6.4 1 8.7-7.8 13.3-19.8 11.1-32.2z"/>
  </g>
  <circle cx="53.3" cy="8.6" r="3.8"/>
</svg>
