<svg xmlns="http://www.w3.org/2000/svg" viewBox="0 0 396.9 396.7">
  <circle cx="198.9" cy="198.1" r="195.5"/>
  <path d="M305.6 214.6c-4.1 0-7.9.7-11.6 1.9l-42.9-79.1-9.5 17.6-41.9-77.1-41.7 77.7-9.9-18.3-42.4 78.9c-3.3-1-6.9-1.6-10.5-1.6-19.7 0-35.7 16-35.7 35.7s16 35.7 35.7 35.7 35.7-16 35.7-35.7c0-9.4-3.7-18-9.6-24.4l26.8-49.9 27.1 49.9c-6 6.4-9.7 15-9.7 24.4 0 19.7 16 35.7 35.7 35.7s35.7-16 35.7-35.7c0-10.4-4.5-19.8-11.6-26.3l25.7-47.9 27.6 50.8c-5.4 6.3-8.7 14.4-8.7 23.4 0 19.7 16 35.7 35.7 35.7s35.7-16 35.7-35.7-16-35.7-35.7-35.7zM95.2 269.7c-10.7 0-19.3-8.7-19.3-19.3S84.5 231 95.2 231s19.3 8.7 19.3 19.3-8.6 19.4-19.3 19.4zm106 0c-10.7 0-19.3-8.7-19.3-19.3s8.7-19.3 19.3-19.3 19.3 8.7 19.3 19.3-8.6 19.3-19.3 19.3zm7.9-54.2c-2.6-.6-5.2-.9-8-.9-3.6 0-7.1.5-10.3 1.5l-22.4-41.3 31.3-58.2 31.4 57.9-22 41zm96.5 54.2c-10.7 0-19.3-8.7-19.3-19.3s8.7-19.3 19.3-19.3 19.3 8.7 19.3 19.3-8.6 19.3-19.3 19.3z" fill="#fff"/>
</svg>
