<svg height="612" viewBox="0 -33 459.228 459" width="612" xmlns="http://www.w3.org/2000/svg">
  <path d="M347.055 333.98c-44.442 0-79.157-46.835-80.614-48.832a7 7 0 010-8.25c1.457-1.996 36.172-48.832 80.614-48.832 44.445 0 79.156 46.836 80.613 48.832a6.987 6.987 0 010 8.25c-1.457 1.997-36.168 48.832-80.613 48.832zm-66.004-52.957c9.074 10.786 35.691 38.965 66.004 38.965 30.308 0 56.925-28.175 66.004-38.965-9.079-10.789-35.692-38.964-66.004-38.964-30.309 0-56.926 28.18-66.004 38.964zm0 0"/>
  <path d="M347.055 316.008c-19.29 0-34.98-15.695-34.98-34.985 0-19.289 15.69-34.98 34.98-34.98 19.289 0 34.984 15.691 34.984 34.98 0 19.29-15.695 34.985-34.984 34.985zm0-55.973c-11.575 0-20.989 9.414-20.989 20.988 0 11.575 9.414 20.989 20.989 20.989 11.574 0 20.992-9.414 20.992-20.989 0-11.574-9.418-20.988-20.992-20.988zm0 0"/>
  <path d="M347.055 392.969c-61.727 0-111.946-50.219-111.946-111.946 0-61.726 50.22-111.945 111.946-111.945S459 219.297 459 281.023c0 61.727-50.219 111.946-111.945 111.946zm0-209.899c-54.008 0-97.95 43.942-97.95 97.953 0 54.008 43.942 97.95 97.95 97.95 54.011 0 97.953-43.942 97.953-97.95 0-54.011-43.942-97.953-97.953-97.953zm0 0"/>
  <path d="M244.992 312.55H46.977C21.074 312.55 0 291.478 0 265.575v-218.5C0 21.172 21.074.098 46.977.098h259.87c25.903 0 46.977 21.074 46.977 46.976v129c0 3.867-3.133 7-6.996 7s-6.996-3.133-6.996-7v-129c0-18.187-14.797-32.984-32.984-32.984H46.977c-18.188 0-32.985 14.797-32.985 32.984v218.5c0 18.188 14.797 32.985 32.985 32.985h198.015a6.997 6.997 0 010 13.992zm0 0"/>
  <path d="M346.828 95.395H6.996a6.997 6.997 0 010-13.993h339.832a6.997 6.997 0 010 13.993zm0 0M100.328 67.629c-10.781 0-19.555-8.774-19.555-19.555s8.774-19.554 19.555-19.554 19.555 8.773 19.555 19.554-8.774 19.555-19.555 19.555zm0-25.117a5.57 5.57 0 00-5.562 5.562c0 3.067 2.496 5.563 5.562 5.563s5.563-2.496 5.563-5.563a5.57 5.57 0 00-5.563-5.562zm0 0M43.914 67.453c-10.781 0-19.555-8.773-19.555-19.555 0-10.785 8.774-19.554 19.555-19.554s19.555 8.77 19.555 19.554c0 10.782-8.774 19.555-19.555 19.555zm0-25.117a5.57 5.57 0 00-5.562 5.562 5.57 5.57 0 005.562 5.563 5.57 5.57 0 005.563-5.563 5.57 5.57 0 00-5.563-5.562zm0 0M156.742 67.805c-10.781 0-19.554-8.77-19.554-19.555 0-10.781 8.773-19.555 19.554-19.555 10.785 0 19.555 8.774 19.555 19.555 0 10.785-8.77 19.555-19.555 19.555zm0-25.118c-3.066 0-5.562 2.497-5.562 5.563s2.496 5.563 5.562 5.563c3.07 0 5.563-2.497 5.563-5.563s-2.493-5.563-5.563-5.563zm0 0"/>
</svg>
